<svg xmlns="http://www.w3.org/2000/svg"
 xmlns:xlink="http://www.w3.org/1999/xlink"
 width="39px" height="39px"  viewBox="0 0 39 39">
<path fill-rule="evenodd"  fill="#000000"
 d="M13.205048,33.72104 C14.58902,34.934006 16.023956,35.84195 17.509491,36.44539 C18.994904,37.049835 20.52008,37.29487 22.084503,37.18303 C23.648926,37.070168 25.252686,36.57807 26.894928,35.70571 C28.537231,34.832336 30.207916,33.54769 31.906311,31.848724 C35.26007,28.495018 37.10385,25.255188 37.437317,22.126694 C37.770752,19.000229 36.66217,16.15998 34.109985,13.60746 C33.120056,12.618179 32.10547,11.883583 31.067383,11.403687 C30.028778,10.9242935 28.906433,10.694008 27.699799,10.712303 C26.493073,10.731117 25.186005,11.014786 23.779083,11.564842 C22.371582,12.1143875 20.815857,12.933365 19.110352,14.022293 C19.110352,14.022293 15.354767,16.457878 15.354767,16.457878 C14.361603,17.09893 13.599579,17.444115 13.067047,17.491394 C12.535034,17.5402 12.082123,17.377518 11.707825,17.002853 C11.267914,16.563622 11.09848,16.006958 11.199219,15.333374 C11.300568,14.661308 11.791138,13.88401 12.672821,13.002502 C13.489624,12.1855545 14.278198,11.7163315 15.03772,11.594322 C15.797272,11.472824 16.703003,11.743782 17.754425,12.40873 C17.754425,12.40873 24.220978,4.622055 24.220978,4.622055 C23.1232,3.6963196 21.929688,2.997818 20.641418,2.5260544 C19.35318,2.0547943 17.981232,1.8758545 16.52536,1.9892197 C15.06958,2.1035995 13.558716,2.5692673 11.9913025,3.3882446 C10.424377,4.207733 8.823395,5.433922 7.1898804,7.0673065 C5.684845,8.572586 4.489929,10.097687 3.6056213,11.642616 C2.7208252,13.186531 2.183899,14.713669 1.9948425,16.222504 C1.8053894,17.73236 1.9582825,19.196457 2.4531555,20.61531 C2.9476318,22.034676 3.8223267,23.370667 5.076233,24.624306 C7.0123596,26.561188 9.17038,27.504715 11.550903,27.455406 C13.931519,27.407112 16.740356,26.314629 19.97754,24.17694 C19.97754,24.17694 23.732422,21.675262 23.732422,21.675262 C24.703857,21.05658 25.466675,20.733253 26.020935,20.706818 C26.575073,20.680893 27.072357,20.887802 27.512146,21.328049 C28.084534,21.899963 28.309021,22.543556 28.186768,23.259842 C28.064606,23.975624 27.552002,24.785965 26.649078,25.688316 C25.531067,26.806732 24.467224,27.408638 23.457062,27.495056 C22.446869,27.58097 21.437408,27.249008 20.428345,26.497643 C20.428345,26.497643 13.205048,33.72104 13.205048,33.72104 Z"/>
</svg>